<mxfile host="app.diagrams.net" modified="2023-11-28T17:11:33.766Z" agent="Mozilla/5.0 (Windows NT 10.0; Win64; x64) AppleWebKit/537.36 (KHTML, like Gecko) Chrome/119.0.0.0 Safari/537.36" version="22.1.4" etag="BJdOyYzVNmfhwfA-iKMn" type="github">
  <diagram name="Страница — 1" id="dIh3Kv_DnmOB3lP1QmKP">
    <mxGraphModel>
      <root>
        <mxCell id="0" />
        <mxCell id="1" parent="0" />
      </root>
    </mxGraphModel>
  </diagram>
</mxfile>
